<?xml version="1.0" encoding="utf-8"?>
<!-- Generator: Adobe Illustrator 14.0.0, SVG Export Plug-In . SVG Version: 6.00 Build 43363)  -->
<!DOCTYPE svg PUBLIC "-//W3C//DTD SVG 1.1//EN" "http://www.w3.org/Graphics/SVG/1.1/DTD/svg11.dtd">
<svg version="1.1" id="Layer_1" xmlns="http://www.w3.org/2000/svg" xmlns:xlink="http://www.w3.org/1999/xlink" x="0px" y="0px"
	 width="500px" height="500px" viewBox="0 0 500 500" enable-background="new 0 0 500 500" xml:space="preserve">
<g>
	<path fill="#4D4D4D" d="M141.791,97.475c-3.689,2.52-15.188,38.918-11.391,43.587c3.797,4.669,50.312,3.864,53.396,0
		c3.084-3.864-11.181-38.307-18.852-43.735S146.936,93.96,141.791,97.475z"/>
	<path fill="#999999" d="M145.786,136.779c0,4.136-3.353,7.49-7.49,7.49h-5.884c-4.137,0-7.49-3.354-7.49-7.49l0,0
		c0-4.136,3.354-7.49,7.49-7.49h5.884C142.433,129.29,145.786,132.643,145.786,136.779L145.786,136.779z"/>
	<path fill="#808080" d="M165.848,136.779c0,4.136-3.354,7.49-7.49,7.49h-5.884c-4.137,0-7.49-3.354-7.49-7.49l0,0
		c0-4.136,3.353-7.49,7.49-7.49h5.884C162.494,129.29,165.848,132.643,165.848,136.779L165.848,136.779z"/>
	<path fill="#B3B3B3" d="M186.712,136.779c0,4.136-3.354,7.49-7.49,7.49h-5.884c-4.137,0-7.49-3.354-7.49-7.49l0,0
		c0-4.136,3.353-7.49,7.49-7.49h5.884C183.358,129.29,186.712,132.643,186.712,136.779L186.712,136.779z"/>
	<path fill="#808080" d="M147.077,121.8c0,3.604-2.922,6.525-6.526,6.525h-5.126c-3.605,0-6.526-2.922-6.526-6.525l0,0
		c0-3.604,2.921-6.526,6.526-6.526h5.126C144.155,115.274,147.077,118.196,147.077,121.8L147.077,121.8z"/>
	<path fill="#808080" d="M164.556,121.8c0,3.604-2.921,6.525-6.526,6.525h-5.126c-3.604,0-6.526-2.922-6.526-6.525l0,0
		c0-3.604,2.922-6.526,6.526-6.526h5.126C161.635,115.274,164.556,118.196,164.556,121.8L164.556,121.8z"/>
	<path fill="#999999" d="M182.735,121.8c0,3.604-2.921,6.525-6.526,6.525h-5.126c-3.604,0-6.526-2.922-6.526-6.525l0,0
		c0-3.604,2.922-6.526,6.526-6.526h5.126C179.814,115.274,182.735,118.196,182.735,121.8L182.735,121.8z"/>
	<path fill="#B3B3B3" d="M147.817,108.749c0,3.013-2.442,5.455-5.456,5.455h-4.285c-3.013,0-5.455-2.442-5.455-5.455l0,0
		c0-3.013,2.442-5.455,5.455-5.455h4.285C145.375,103.293,147.817,105.736,147.817,108.749L147.817,108.749z"/>
	<path fill="#999999" d="M162.429,108.749c0,3.013-2.442,5.455-5.455,5.455h-4.286c-3.013,0-5.455-2.442-5.455-5.455l0,0
		c0-3.013,2.442-5.455,5.455-5.455h4.286C159.986,103.293,162.429,105.736,162.429,108.749L162.429,108.749z"/>
	<path fill="#808080" d="M177.625,108.749c0,3.013-2.442,5.455-5.455,5.455h-4.285c-3.013,0-5.456-2.442-5.456-5.455l0,0
		c0-3.013,2.442-5.455,5.456-5.455h4.285C175.183,103.293,177.625,105.736,177.625,108.749L177.625,108.749z"/>
	<path fill="#808080" d="M154.831,97.839c0,3.012-2.442,5.455-5.455,5.455h-4.285c-3.013,0-5.456-2.442-5.456-5.455l0,0
		c0-3.013,2.442-5.455,5.456-5.455h4.285C152.389,92.384,154.831,94.826,154.831,97.839L154.831,97.839z"/>
	<path fill="#999999" d="M170.027,97.839c0,3.012-2.442,5.455-5.455,5.455h-4.285c-3.013,0-5.456-2.442-5.456-5.455l0,0
		c0-3.013,2.442-5.455,5.456-5.455h4.285C167.585,92.384,170.027,94.826,170.027,97.839L170.027,97.839z"/>
</g>
<g>
	<rect x="79.038" y="270.34" fill="#1A1A1A" width="344.18" height="130.001"/>
	<g>
		<path fill="#40251A" d="M291.463,368.808c0-1.331-1.073-2.407-2.4-2.407H78.398c-1.326,0-2.4,1.076-2.4,2.407v23.284h215.465
			V368.808z"/>
		<path fill="#1A1A1A" d="M78.398,400.173h210.664c1.327,0,2.4-1.077,2.4-2.407v-5.674H75.998v5.674
			C75.998,399.096,77.073,400.173,78.398,400.173z"/>
		<rect x="75.998" y="372.832" fill="#754C24" width="215.465" height="6.414"/>
	</g>
	<g>
		<path fill="#40251A" d="M291.463,335.36c0-1.33-1.073-2.407-2.4-2.407H78.398c-1.326,0-2.4,1.077-2.4,2.407v23.284h215.465V335.36
			z"/>
		<path fill="#1A1A1A" d="M78.398,366.726h210.664c1.327,0,2.4-1.076,2.4-2.407v-5.674H75.998v5.674
			C75.998,365.649,77.073,366.726,78.398,366.726z"/>
		<rect x="75.998" y="339.386" fill="#754C24" width="215.465" height="6.413"/>
	</g>
	<g>
		<path fill="#40251A" d="M291.463,301.587c0-1.329-1.074-2.408-2.4-2.408H78.398c-1.326,0-2.4,1.079-2.4,2.408v23.285h215.465
			V301.587z"/>
		<path fill="#1A1A1A" d="M78.398,332.953h210.665c1.326,0,2.4-1.078,2.4-2.407v-5.674H75.998v5.674
			C75.998,331.875,77.072,332.953,78.398,332.953z"/>
		<rect x="75.998" y="305.613" fill="#754C24" width="215.465" height="6.413"/>
	</g>
	<g>
		<path fill="#40251A" d="M291.463,268.141c0-1.33-1.074-2.406-2.4-2.406H78.398c-1.326,0-2.4,1.076-2.4,2.406v23.285h215.465
			V268.141z"/>
		<path fill="#1A1A1A" d="M78.398,299.507h210.665c1.326,0,2.4-1.077,2.4-2.407v-5.674H75.998v5.674
			C75.998,298.43,77.072,299.507,78.398,299.507z"/>
		<rect x="75.998" y="272.166" fill="#754C24" width="215.465" height="6.413"/>
	</g>
	<g>
		<path fill="#40251A" d="M429.085,268.141c0-1.33-1.075-2.406-2.401-2.406H216.02c-1.326,0-2.4,1.076-2.4,2.406v23.285h215.466
			V268.141z"/>
		<path fill="#1A1A1A" d="M216.02,299.507h210.664c1.326,0,2.401-1.077,2.401-2.407v-5.674H213.619v5.674
			C213.619,298.43,214.693,299.507,216.02,299.507z"/>
		<rect x="213.619" y="272.166" fill="#754C24" width="215.466" height="6.413"/>
	</g>
	<g>
		<path fill="#40251A" d="M429.085,301.914c0-1.331-1.075-2.407-2.401-2.407h-74.021c-1.325,0-2.4,1.076-2.4,2.407v23.284h78.823
			V301.914z"/>
		<path fill="#1A1A1A" d="M352.662,333.279h74.021c1.326,0,2.401-1.077,2.401-2.407v-5.674h-78.823v5.674
			C350.262,332.202,351.337,333.279,352.662,333.279z"/>
		<rect x="350.262" y="305.938" fill="#754C24" width="78.823" height="6.414"/>
	</g>
	<g>
		<path fill="#40251A" d="M429.085,335.36c0-1.33-1.075-2.407-2.401-2.407h-74.021c-1.325,0-2.4,1.077-2.4,2.407v23.284h78.823
			V335.36z"/>
		<path fill="#1A1A1A" d="M352.662,366.726h74.021c1.326,0,2.401-1.076,2.401-2.407v-5.674h-78.823v5.674
			C350.262,365.649,351.337,366.726,352.662,366.726z"/>
		<rect x="350.262" y="339.386" fill="#754C24" width="78.823" height="6.413"/>
	</g>
	<g>
		<path fill="#40251A" d="M429.085,368.808c0-1.331-1.075-2.407-2.401-2.407h-74.021c-1.325,0-2.4,1.076-2.4,2.407v23.284h78.823
			V368.808z"/>
		<path fill="#1A1A1A" d="M352.662,400.173h74.021c1.326,0,2.401-1.077,2.401-2.407v-5.674h-78.823v5.674
			C350.262,399.096,351.337,400.173,352.662,400.173z"/>
		<rect x="350.262" y="372.832" fill="#754C24" width="78.823" height="6.414"/>
	</g>
	<g>
		<g>
			<path fill="#C69C6D" d="M411.791,351.86h-11.625c-7.296,0-13.211,5.915-13.211,13.209v5.285c0,7.296,5.915,13.211,13.211,13.211
				h11.625c7.296,0,13.211-5.915,13.211-13.211v-5.285C425.002,357.775,419.087,351.86,411.791,351.86z"/>
			<path fill="#534741" d="M412.051,353.561c6.28,0,11.392,5.109,11.392,11.392v5.52c0,6.282-5.111,11.394-11.392,11.394h-12.144
				c-6.281,0-11.393-5.111-11.393-11.394v-5.52c0-6.282,5.111-11.392,11.393-11.392H412.051 M412.051,351.153h-12.144
				c-7.622,0-13.8,6.178-13.8,13.799v5.52c0,7.622,6.178,13.801,13.8,13.801h12.144c7.621,0,13.799-6.179,13.799-13.801v-5.52
				C425.85,357.331,419.672,351.153,412.051,351.153L412.051,351.153z"/>
			<path fill="#534741" d="M419.465,369.585c0,5.174-4.193,9.364-9.365,9.364h-8.242c-5.173,0-9.365-4.19-9.365-9.364v-3.744
				c0-5.174,4.192-9.366,9.365-9.366h8.242c5.172,0,9.365,4.192,9.365,9.366V369.585z"/>
			<g>
				<path fill="#534741" d="M411.278,368.448c0,2.033-1.647,3.681-3.68,3.681h-3.238c-2.033,0-3.681-1.647-3.681-3.681v-1.472
					c0-2.032,1.647-3.68,3.681-3.68h3.238c2.032,0,3.68,1.647,3.68,3.68V368.448z"/>
				<path fill="#C69C6D" d="M407.599,365.704c0.7,0,1.272,0.57,1.272,1.272v1.472c0,0.701-0.572,1.273-1.272,1.273h-3.238
					c-0.702,0-1.272-0.572-1.272-1.273v-1.472c0-0.702,0.57-1.272,1.272-1.272H407.599 M407.599,363.297h-3.238
					c-2.033,0-3.681,1.647-3.681,3.68v1.472c0,2.033,1.647,3.681,3.681,3.681h3.238c2.032,0,3.68-1.647,3.68-3.681v-1.472
					C411.278,364.944,409.631,363.297,407.599,363.297L407.599,363.297z"/>
			</g>
		</g>
		<g>
			<path fill="#C69C6D" d="M411.791,317.682h-11.625c-7.296,0-13.211,5.916-13.211,13.212v5.284c0,7.296,5.915,13.21,13.211,13.21
				h11.625c7.296,0,13.211-5.914,13.211-13.21v-5.284C425.002,323.598,419.087,317.682,411.791,317.682z"/>
			<path fill="#534741" d="M412.051,319.383c6.28,0,11.392,5.111,11.392,11.393v5.521c0,6.281-5.111,11.391-11.392,11.391h-12.144
				c-6.281,0-11.393-5.109-11.393-11.391v-5.521c0-6.281,5.111-11.393,11.393-11.393H412.051 M412.051,316.976h-12.144
				c-7.622,0-13.8,6.18-13.8,13.8v5.521c0,7.62,6.178,13.799,13.8,13.799h12.144c7.621,0,13.799-6.179,13.799-13.799v-5.521
				C425.85,323.155,419.672,316.976,412.051,316.976L412.051,316.976z"/>
			<path fill="#534741" d="M419.465,335.407c0,5.175-4.193,9.366-9.365,9.366h-8.242c-5.173,0-9.365-4.191-9.365-9.366v-3.744
				c0-5.174,4.192-9.367,9.365-9.367h8.242c5.172,0,9.365,4.193,9.365,9.367V335.407z"/>
			<g>
				<path fill="#534741" d="M411.278,334.271c0,2.033-1.647,3.681-3.68,3.681h-3.238c-2.033,0-3.681-1.647-3.681-3.681v-1.47
					c0-2.034,1.647-3.682,3.681-3.682h3.238c2.032,0,3.68,1.647,3.68,3.682V334.271z"/>
				<path fill="#C69C6D" d="M407.599,331.526c0.7,0,1.272,0.572,1.272,1.274v1.47c0,0.702-0.572,1.272-1.272,1.272h-3.238
					c-0.702,0-1.272-0.57-1.272-1.272v-1.47c0-0.702,0.57-1.274,1.272-1.274H407.599 M407.599,329.119h-3.238
					c-2.033,0-3.681,1.647-3.681,3.682v1.47c0,2.033,1.647,3.681,3.681,3.681h3.238c2.032,0,3.68-1.647,3.68-3.681v-1.47
					C411.278,330.767,409.631,329.119,407.599,329.119L407.599,329.119z"/>
			</g>
		</g>
		<g>
			<path fill="#C69C6D" d="M411.791,283.505h-11.625c-7.296,0-13.211,5.914-13.211,13.21V302c0,7.296,5.915,13.21,13.211,13.21
				h11.625c7.296,0,13.211-5.914,13.211-13.21v-5.285C425.002,289.419,419.087,283.505,411.791,283.505z"/>
			<path fill="#534741" d="M412.051,285.205c6.28,0,11.392,5.11,11.392,11.393v5.521c0,6.281-5.111,11.391-11.392,11.391h-12.144
				c-6.281,0-11.393-5.109-11.393-11.391v-5.521c0-6.282,5.111-11.393,11.393-11.393H412.051 M412.051,282.798h-12.144
				c-7.622,0-13.8,6.18-13.8,13.8v5.521c0,7.62,6.178,13.799,13.8,13.799h12.144c7.621,0,13.799-6.179,13.799-13.799v-5.521
				C425.85,288.978,419.672,282.798,412.051,282.798L412.051,282.798z"/>
			<path fill="#534741" d="M419.465,301.229c0,5.175-4.193,9.366-9.365,9.366h-8.242c-5.173,0-9.365-4.191-9.365-9.366v-3.745
				c0-5.174,4.192-9.366,9.365-9.366h8.242c5.172,0,9.365,4.192,9.365,9.366V301.229z"/>
			<g>
				<path fill="#534741" d="M411.278,300.093c0,2.033-1.647,3.68-3.68,3.68h-3.238c-2.033,0-3.681-1.646-3.681-3.68v-1.47
					c0-2.035,1.647-3.682,3.681-3.682h3.238c2.032,0,3.68,1.646,3.68,3.682V300.093z"/>
				<path fill="#C69C6D" d="M407.599,297.349c0.7,0,1.272,0.572,1.272,1.274v1.47c0,0.702-0.572,1.272-1.272,1.272h-3.238
					c-0.702,0-1.272-0.57-1.272-1.272v-1.47c0-0.702,0.57-1.274,1.272-1.274H407.599 M407.599,294.941h-3.238
					c-2.033,0-3.681,1.646-3.681,3.682v1.47c0,2.033,1.647,3.68,3.681,3.68h3.238c2.032,0,3.68-1.646,3.68-3.68v-1.47
					C411.278,296.588,409.631,294.941,407.599,294.941L407.599,294.941z"/>
			</g>
		</g>
		<g>
			<path fill="#C69C6D" d="M411.791,249.327h-11.625c-7.296,0-13.211,5.915-13.211,13.21v5.285c0,7.296,5.915,13.21,13.211,13.21
				h11.625c7.296,0,13.211-5.914,13.211-13.21v-5.285C425.002,255.242,419.087,249.327,411.791,249.327z"/>
			<path fill="#534741" d="M412.051,251.027c6.28,0,11.392,5.11,11.392,11.393v5.52c0,6.282-5.111,11.393-11.392,11.393h-12.144
				c-6.281,0-11.393-5.11-11.393-11.393v-5.52c0-6.282,5.111-11.393,11.393-11.393H412.051 M412.051,248.62h-12.144
				c-7.622,0-13.8,6.179-13.8,13.8v5.52c0,7.621,6.178,13.8,13.8,13.8h12.144c7.621,0,13.799-6.179,13.799-13.8v-5.52
				C425.85,254.799,419.672,248.62,412.051,248.62L412.051,248.62z"/>
			<path fill="#534741" d="M419.465,267.052c0,5.175-4.193,9.366-9.365,9.366h-8.242c-5.173,0-9.365-4.191-9.365-9.366v-3.744
				c0-5.174,4.192-9.366,9.365-9.366h8.242c5.172,0,9.365,4.192,9.365,9.366V267.052z"/>
			<g>
				<path fill="#534741" d="M411.278,265.916c0,2.033-1.647,3.68-3.68,3.68h-3.238c-2.033,0-3.681-1.646-3.681-3.68v-1.471
					c0-2.034,1.647-3.682,3.681-3.682h3.238c2.032,0,3.68,1.647,3.68,3.682V265.916z"/>
				<path fill="#C69C6D" d="M407.599,263.172c0.7,0,1.272,0.57,1.272,1.273v1.471c0,0.701-0.572,1.272-1.272,1.272h-3.238
					c-0.702,0-1.272-0.571-1.272-1.272v-1.471c0-0.703,0.57-1.273,1.272-1.273H407.599 M407.599,260.764h-3.238
					c-2.033,0-3.681,1.647-3.681,3.682v1.471c0,2.033,1.647,3.68,3.681,3.68h3.238c2.032,0,3.68-1.646,3.68-3.68v-1.471
					C411.278,262.411,409.631,260.764,407.599,260.764L407.599,260.764z"/>
			</g>
		</g>
		<g>
			<path fill="#C69C6D" d="M412.049,387.737h-12.144c-6.28,0-11.392,5.111-11.392,11.394v1.23h3.978v-0.344
				c0-5.174,4.193-9.364,9.365-9.364h8.242c5.173,0,9.365,4.19,9.365,9.364v0.344h3.978v-1.23
				C423.441,392.849,418.33,387.737,412.049,387.737z"/>
			<path fill="#534741" d="M412.049,385.33h-12.144c-7.62,0-13.799,6.179-13.799,13.801v1.23h2.407v-1.23
				c0-6.282,5.111-11.394,11.392-11.394h12.144c6.281,0,11.393,5.111,11.393,11.394v1.23h2.407v-1.23
				C425.849,391.509,419.671,385.33,412.049,385.33z"/>
			<path fill="#534741" d="M410.099,390.653h-8.242c-5.172,0-9.365,4.19-9.365,9.364v0.344h8.277c0.363-1.65,1.83-2.888,3.589-2.888
				h3.238c1.76,0,3.226,1.237,3.59,2.888h8.278v-0.344C419.464,394.844,415.271,390.653,410.099,390.653z"/>
			<path fill="#534741" d="M407.596,399.881h-3.238c-0.399,0-0.752,0.19-0.985,0.48h5.211
				C408.349,400.071,407.996,399.881,407.596,399.881z"/>
			<path fill="#C69C6D" d="M407.596,397.474h-3.238c-1.759,0-3.226,1.237-3.589,2.888h2.604c0.233-0.29,0.586-0.48,0.985-0.48h3.238
				c0.4,0,0.753,0.19,0.987,0.48h2.603C410.821,398.711,409.355,397.474,407.596,397.474z"/>
		</g>
	</g>
	<g>
		<g>
			<path fill="#C69C6D" d="M104.723,352.241H93.098c-7.296,0-13.211,5.916-13.211,13.21v5.285c0,7.296,5.916,13.211,13.211,13.211
				h11.625c7.296,0,13.211-5.915,13.211-13.211v-5.285C117.934,358.157,112.019,352.241,104.723,352.241z"/>
			<path fill="#534741" d="M104.983,353.942c6.28,0,11.391,5.109,11.391,11.392v5.52c0,6.282-5.111,11.393-11.391,11.393H92.839
				c-6.282,0-11.393-5.11-11.393-11.393v-5.52c0-6.282,5.111-11.392,11.393-11.392H104.983 M104.983,351.535H92.839
				c-7.622,0-13.8,6.178-13.8,13.799v5.52c0,7.622,6.178,13.801,13.8,13.801h12.144c7.621,0,13.799-6.179,13.799-13.801v-5.52
				C118.782,357.713,112.604,351.535,104.983,351.535L104.983,351.535z"/>
			<path fill="#534741" d="M112.396,369.967c0,5.174-4.193,9.364-9.365,9.364h-8.243c-5.172,0-9.365-4.19-9.365-9.364v-3.744
				c0-5.174,4.192-9.367,9.365-9.367h8.243c5.172,0,9.365,4.193,9.365,9.367V369.967z"/>
			<g>
				<path fill="#534741" d="M104.21,368.83c0,2.033-1.647,3.681-3.68,3.681h-3.238c-2.033,0-3.68-1.647-3.68-3.681v-1.472
					c0-2.033,1.647-3.68,3.68-3.68h3.238c2.033,0,3.68,1.646,3.68,3.68V368.83z"/>
				<path fill="#C69C6D" d="M100.53,366.086c0.701,0,1.272,0.57,1.272,1.272v1.472c0,0.701-0.572,1.272-1.272,1.272h-3.238
					c-0.702,0-1.272-0.571-1.272-1.272v-1.472c0-0.702,0.57-1.272,1.272-1.272H100.53 M100.53,363.679h-3.238
					c-2.033,0-3.68,1.646-3.68,3.68v1.472c0,2.033,1.647,3.681,3.68,3.681h3.238c2.033,0,3.68-1.647,3.68-3.681v-1.472
					C104.21,365.325,102.563,363.679,100.53,363.679L100.53,363.679z"/>
			</g>
		</g>
		<g>
			<path fill="#C69C6D" d="M104.723,318.063H93.098c-7.296,0-13.211,5.915-13.211,13.211v5.285c0,7.296,5.916,13.21,13.211,13.21
				h11.625c7.296,0,13.211-5.914,13.211-13.21v-5.285C117.934,323.979,112.019,318.063,104.723,318.063z"/>
			<path fill="#534741" d="M104.983,319.765c6.28,0,11.391,5.11,11.391,11.393v5.521c0,6.281-5.111,11.391-11.391,11.391H92.839
				c-6.282,0-11.393-5.109-11.393-11.391v-5.521c0-6.282,5.111-11.393,11.393-11.393H104.983 M104.983,317.356H92.839
				c-7.622,0-13.8,6.181-13.8,13.801v5.521c0,7.62,6.178,13.798,13.8,13.798h12.144c7.621,0,13.799-6.178,13.799-13.798v-5.521
				C118.782,323.537,112.604,317.356,104.983,317.356L104.983,317.356z"/>
			<path fill="#534741" d="M112.396,335.789c0,5.175-4.193,9.366-9.365,9.366h-8.243c-5.172,0-9.365-4.191-9.365-9.366v-3.745
				c0-5.174,4.192-9.366,9.365-9.366h8.243c5.172,0,9.365,4.192,9.365,9.366V335.789z"/>
			<g>
				<path fill="#534741" d="M104.21,334.652c0,2.033-1.647,3.68-3.68,3.68h-3.238c-2.033,0-3.68-1.646-3.68-3.68v-1.47
					c0-2.035,1.647-3.682,3.68-3.682h3.238c2.033,0,3.68,1.646,3.68,3.682V334.652z"/>
				<path fill="#C69C6D" d="M100.53,331.908c0.701,0,1.272,0.572,1.272,1.274v1.47c0,0.702-0.572,1.272-1.272,1.272h-3.238
					c-0.702,0-1.272-0.57-1.272-1.272v-1.47c0-0.702,0.57-1.274,1.272-1.274H100.53 M100.53,329.501h-3.238
					c-2.033,0-3.68,1.646-3.68,3.682v1.47c0,2.033,1.647,3.68,3.68,3.68h3.238c2.033,0,3.68-1.646,3.68-3.68v-1.47
					C104.21,331.147,102.563,329.501,100.53,329.501L100.53,329.501z"/>
			</g>
		</g>
		<g>
			<path fill="#C69C6D" d="M104.723,283.886H93.098c-7.296,0-13.211,5.915-13.211,13.211v5.285c0,7.296,5.916,13.209,13.211,13.209
				h11.625c7.296,0,13.211-5.913,13.211-13.209v-5.285C117.934,289.801,112.019,283.886,104.723,283.886z"/>
			<path fill="#534741" d="M104.983,285.586c6.28,0,11.391,5.111,11.391,11.394v5.52c0,6.282-5.111,11.392-11.391,11.392H92.839
				c-6.282,0-11.393-5.109-11.393-11.392v-5.52c0-6.282,5.111-11.394,11.393-11.394H104.983 M104.983,283.179H92.839
				c-7.622,0-13.8,6.181-13.8,13.801v5.52c0,7.621,6.178,13.799,13.8,13.799h12.144c7.621,0,13.799-6.178,13.799-13.799v-5.52
				C118.782,289.359,112.604,283.179,104.983,283.179L104.983,283.179z"/>
			<path fill="#534741" d="M112.396,301.61c0,5.176-4.193,9.367-9.365,9.367h-8.243c-5.172,0-9.365-4.191-9.365-9.367v-3.744
				c0-5.174,4.192-9.366,9.365-9.366h8.243c5.172,0,9.365,4.192,9.365,9.366V301.61z"/>
			<g>
				<path fill="#534741" d="M104.21,300.475c0,2.032-1.647,3.68-3.68,3.68h-3.238c-2.033,0-3.68-1.647-3.68-3.68v-1.471
					c0-2.034,1.647-3.682,3.68-3.682h3.238c2.033,0,3.68,1.647,3.68,3.682V300.475z"/>
				<path fill="#C69C6D" d="M100.53,297.73c0.701,0,1.272,0.571,1.272,1.273v1.471c0,0.702-0.572,1.272-1.272,1.272h-3.238
					c-0.702,0-1.272-0.57-1.272-1.272v-1.471c0-0.702,0.57-1.273,1.272-1.273H100.53 M100.53,295.322h-3.238
					c-2.033,0-3.68,1.647-3.68,3.682v1.471c0,2.032,1.647,3.68,3.68,3.68h3.238c2.033,0,3.68-1.647,3.68-3.68v-1.471
					C104.21,296.97,102.563,295.322,100.53,295.322L100.53,295.322z"/>
			</g>
		</g>
		<g>
			<path fill="#C69C6D" d="M104.723,249.709H93.098c-7.296,0-13.211,5.915-13.211,13.21v5.285c0,7.296,5.916,13.21,13.211,13.21
				h11.625c7.296,0,13.211-5.914,13.211-13.21v-5.285C117.934,255.624,112.019,249.709,104.723,249.709z"/>
			<path fill="#534741" d="M104.983,251.409c6.28,0,11.391,5.11,11.391,11.392v5.521c0,6.282-5.111,11.393-11.391,11.393H92.839
				c-6.282,0-11.393-5.11-11.393-11.393v-5.521c0-6.281,5.111-11.392,11.393-11.392H104.983 M104.983,249.002H92.839
				c-7.622,0-13.8,6.18-13.8,13.799v5.521c0,7.622,6.178,13.8,13.8,13.8h12.144c7.621,0,13.799-6.178,13.799-13.8v-5.521
				C118.782,255.182,112.604,249.002,104.983,249.002L104.983,249.002z"/>
			<path fill="#534741" d="M112.396,267.434c0,5.175-4.193,9.365-9.365,9.365h-8.243c-5.172,0-9.365-4.19-9.365-9.365v-3.744
				c0-5.174,4.192-9.367,9.365-9.367h8.243c5.172,0,9.365,4.193,9.365,9.367V267.434z"/>
			<g>
				<path fill="#534741" d="M104.21,266.297c0,2.033-1.647,3.681-3.68,3.681h-3.238c-2.033,0-3.68-1.647-3.68-3.681v-1.471
					c0-2.033,1.647-3.681,3.68-3.681h3.238c2.033,0,3.68,1.647,3.68,3.681V266.297z"/>
				<path fill="#C69C6D" d="M100.53,263.553c0.701,0,1.272,0.571,1.272,1.273v1.471c0,0.701-0.572,1.273-1.272,1.273h-3.238
					c-0.702,0-1.272-0.572-1.272-1.273v-1.471c0-0.702,0.57-1.273,1.272-1.273H100.53 M100.53,261.146h-3.238
					c-2.033,0-3.68,1.647-3.68,3.681v1.471c0,2.033,1.647,3.681,3.68,3.681h3.238c2.033,0,3.68-1.647,3.68-3.681v-1.471
					C104.21,262.793,102.563,261.146,100.53,261.146L100.53,261.146z"/>
			</g>
		</g>
		<g>
			<path fill="#C69C6D" d="M104.98,388.119H92.837c-6.28,0-11.391,5.111-11.391,11.393v1.23h3.978v-0.343
				c0-5.174,4.193-9.365,9.365-9.365h8.243c5.172,0,9.365,4.191,9.365,9.365v0.343h3.978v-1.23
				C116.374,393.23,111.263,388.119,104.98,388.119z"/>
			<path fill="#534741" d="M104.98,385.712H92.837c-7.62,0-13.799,6.179-13.799,13.8v1.23h2.408v-1.23
				c0-6.281,5.111-11.393,11.391-11.393h12.144c6.282,0,11.393,5.111,11.393,11.393v1.23h2.407v-1.23
				C118.781,391.891,112.603,385.712,104.98,385.712z"/>
			<path fill="#534741" d="M103.031,391.034h-8.243c-5.172,0-9.365,4.191-9.365,9.365v0.343h8.277
				c0.363-1.65,1.83-2.887,3.589-2.887h3.238c1.759,0,3.226,1.236,3.589,2.887h8.278v-0.343
				C112.396,395.226,108.203,391.034,103.031,391.034z"/>
			<path fill="#534741" d="M100.528,400.263H97.29c-0.399,0-0.752,0.189-0.986,0.479h5.211
				C101.281,400.452,100.928,400.263,100.528,400.263z"/>
			<path fill="#C69C6D" d="M100.528,397.855H97.29c-1.759,0-3.226,1.236-3.589,2.887h2.603c0.234-0.29,0.586-0.479,0.986-0.479
				h3.238c0.4,0,0.753,0.189,0.987,0.479h2.603C103.753,399.092,102.287,397.855,100.528,397.855z"/>
		</g>
	</g>
</g>
<g>
	<polygon fill="none" points="363.07,285.436 385.365,285.436 374.218,273.842 	"/>
	<polygon fill="none" points="73.247,285.436 73.309,285.436 73.278,285.403 	"/>
	<polygon fill="none" points="340.777,285.436 363.07,285.436 351.924,273.842 	"/>
	<polygon fill="none" points="318.482,285.436 340.777,285.436 329.629,273.842 	"/>
	<polygon fill="none" points="396.512,273.842 385.365,285.436 407.224,285.436 407.224,284.982 	"/>
	<path fill="none" d="M440.665,273.842l-11.146,11.594h2.837c5.654,0,10.511-2.214,13.864-5.817L440.665,273.842z"/>
	<polygon fill="none" points="73.309,285.371 73.309,285.436 95.541,285.436 84.394,273.842 	"/>
	<polygon fill="none" points="407.659,284.982 407.659,285.436 429.519,285.436 418.37,273.842 	"/>
	<polygon fill="none" points="407.224,285.436 407.659,285.436 407.441,285.209 	"/>
	<polygon fill="none" points="296.188,285.436 318.482,285.436 307.336,273.842 	"/>
	<polygon fill="none" points="117.835,285.436 140.129,285.436 128.982,273.842 	"/>
	<polygon fill="none" points="184.717,285.436 207.012,285.436 195.865,273.842 	"/>
	<polygon fill="none" points="162.423,285.436 184.717,285.436 173.571,273.842 	"/>
	<polygon fill="none" points="140.129,285.436 162.423,285.436 151.276,273.842 	"/>
	<polygon fill="none" points="418.014,224.448 418.728,224.448 418.37,224.077 	"/>
	<polygon fill="none" points="273.895,285.436 296.188,285.436 285.041,273.842 	"/>
	<polygon fill="none" points="229.306,285.436 251.601,285.436 240.453,273.842 	"/>
	<polygon fill="none" points="95.541,285.436 117.835,285.436 106.688,273.842 	"/>
	<polygon fill="none" points="251.601,285.436 273.895,285.436 262.747,273.842 	"/>
	<polygon fill="none" points="207.012,285.436 229.306,285.436 218.159,273.842 	"/>
	<polygon fill="none" points="240.097,224.448 240.81,224.448 240.453,224.077 	"/>
	<polygon fill="none" points="284.685,224.448 285.397,224.448 285.041,224.077 	"/>
	<polygon fill="none" points="262.391,224.448 263.104,224.448 262.747,224.077 	"/>
	<polygon fill="none" points="217.802,224.448 218.516,224.448 218.159,224.077 	"/>
	<polygon fill="none" points="173.214,224.448 173.927,224.448 173.571,224.077 	"/>
	<polygon fill="none" points="195.508,224.448 196.222,224.448 195.865,224.077 	"/>
	<polygon fill="none" points="373.861,224.448 374.575,224.448 374.218,224.077 	"/>
	<polygon fill="none" points="306.979,224.448 307.692,224.448 307.336,224.077 	"/>
	<path fill="none" d="M62.163,273.842l-4.55,4.733c3.276,4.216,8.461,6.86,14.644,6.86h0.99v-0.064L62.163,273.842z"/>
	<polygon fill="none" points="351.567,224.448 352.28,224.448 351.924,224.077 	"/>
	<polygon fill="none" points="329.272,224.448 329.986,224.448 329.629,224.077 	"/>
	<polygon fill="none" points="396.155,224.448 396.868,224.448 396.512,224.077 	"/>
	<polygon fill="none" points="84.037,224.448 84.75,224.448 84.394,224.077 	"/>
	<polygon fill="none" points="150.92,224.448 151.633,224.448 151.276,224.077 	"/>
	<polygon fill="none" points="61.806,224.448 62.52,224.448 62.163,224.077 	"/>
	<polygon fill="none" points="440.309,224.448 441.021,224.448 440.665,224.077 	"/>
	<polygon fill="none" points="128.625,224.448 129.339,224.448 128.982,224.077 	"/>
	<polygon fill="none" points="106.332,224.448 107.045,224.448 106.688,224.077 	"/>
	<path fill="#47321D" d="M446.22,279.618c0.827-0.889,1.564-1.859,2.196-2.905l-5.968-6.207l-11.146,11.593l-11.147-11.593
		l-10.711,11.14v0.453l-0.218-0.227l-0.219,0.227v-0.453l-10.712-11.14l-11.146,11.593l-11.146-11.593l-11.147,11.593
		l-11.147-11.593l-11.146,11.593l-11.147-11.593l-11.147,11.593l-11.147-11.593l-11.146,11.593l-11.146-11.593l-11.147,11.593
		l-11.147-11.593l-11.146,11.593l-11.147-11.593l-11.146,11.593l-11.147-11.593l-11.146,11.593l-11.147-11.593l-11.147,11.593
		l-11.146-11.593l-11.147,11.593l-11.147-11.593l-11.147,11.593l-11.147-11.593l-11.147,11.593l-11.147-11.593l-11.147,11.593
		l-11.147-11.593l-11.084,11.528v0.064l-0.031-0.031l-0.031,0.031v-0.064l-11.084-11.528l-6.95,7.228
		c0.197,0.287,0.403,0.567,0.617,0.842l4.55-4.733l11.084,11.529v0.064l0.031-0.032l0.031,0.032v-0.064l11.084-11.529l11.147,11.594
		l11.147-11.594l11.147,11.594l11.147-11.594l11.147,11.594l11.147-11.594l11.147,11.594l11.147-11.594l11.146,11.594l11.147-11.594
		l11.147,11.594l11.147-11.594l11.146,11.594l11.147-11.594l11.147,11.594l11.146-11.594l11.147,11.594l11.146-11.594l11.147,11.594
		l11.147-11.594l11.146,11.594l11.146-11.594l11.148,11.594l11.146-11.594l11.146,11.594l11.147-11.594l11.147,11.594l11.146-11.594
		l10.712,11.141v0.453l0.218-0.227l0.218,0.227v-0.453l10.711-11.141l11.148,11.594l11.146-11.594L446.22,279.618z"/>
	<path fill="#754C24" d="M75.03,282.034v0.064l0.031-0.031l0.031,0.031v-0.064l11.084-11.528l11.147,11.593l11.147-11.593
		l11.147,11.593l11.147-11.593l11.147,11.593l11.147-11.593l11.147,11.593l11.147-11.593l11.146,11.593l11.147-11.593l11.147,11.593
		l11.146-11.593l11.147,11.593l11.146-11.593l11.147,11.593l11.146-11.593l11.147,11.593l11.147-11.593l11.146,11.593l11.146-11.593
		l11.147,11.593l11.147-11.593l11.147,11.593l11.146-11.593l11.147,11.593l11.147-11.593l11.146,11.593l11.146-11.593l10.712,11.14
		v0.453l0.219-0.227l0.218,0.227v-0.453l10.711-11.14l11.147,11.593l11.146-11.593l5.968,6.207c1.124-1.855,1.928-3.938,2.348-6.182
		l-10.099-10.501l-11.146,11.593L418.37,260.03l-10.711,11.14v0.453l-0.218-0.227l-0.218,0.227v-0.453l-10.712-11.14l-11.146,11.593
		l-11.147-11.593l-11.147,11.593l-11.146-11.593l-11.146,11.593l-11.148-11.593l-11.146,11.593l-11.146-11.593l-11.147,11.593
		l-11.147-11.593l-11.146,11.593l-11.147-11.593l-11.146,11.593l-11.147-11.593l-11.147,11.593l-11.146-11.593l-11.147,11.593
		l-11.147-11.593l-11.147,11.593l-11.146-11.593l-11.147,11.593l-11.147-11.593l-11.147,11.593l-11.147-11.593l-11.147,11.593
		l-11.147-11.593l-11.147,11.593L84.394,260.03l-11.084,11.528v0.064l-0.031-0.032l-0.031,0.032v-0.064L62.163,260.03l-8.268,8.599
		c0.235,3.408,1.328,6.516,3.101,9.104l6.95-7.228L75.03,282.034z"/>
	<path fill="#FBB03B" d="M62.163,260.03l11.084,11.528v0.064l0.031-0.032l0.031,0.032v-0.064l11.084-11.528l11.147,11.593
		l11.147-11.593l11.147,11.593l11.147-11.593l11.147,11.593l11.147-11.593l11.147,11.593l11.147-11.593l11.146,11.593l11.147-11.593
		l11.147,11.593l11.147-11.593l11.146,11.593l11.147-11.593l11.147,11.593l11.146-11.593l11.147,11.593l11.146-11.593l11.147,11.593
		l11.147-11.593l11.146,11.593l11.146-11.593l11.148,11.593l11.146-11.593l11.146,11.593l11.147-11.593l11.147,11.593l11.146-11.593
		l10.712,11.14v0.453l0.218-0.227l0.218,0.227v-0.453l10.711-11.14l11.148,11.593l11.146-11.593l10.099,10.501
		c0.373-2.002,0.443-4.131,0.166-6.338l-0.797-6.35l-7.685-7.991l-11.146,11.593l-11.147-11.593l-10.711,11.141v0.452l-0.218-0.227
		l-0.219,0.227v-0.452l-10.712-11.141l-11.146,11.593l-11.146-11.593l-11.147,11.593l-11.147-11.593l-11.146,11.593l-11.147-11.593
		l-11.147,11.593l-11.147-11.593l-11.146,11.593l-11.146-11.593l-11.147,11.593l-11.147-11.593l-11.146,11.593l-11.147-11.593
		l-11.146,11.593l-11.147-11.593l-11.146,11.593l-11.147-11.593l-11.147,11.593l-11.146-11.593l-11.147,11.593l-11.147-11.593
		l-11.147,11.593l-11.147-11.593l-11.147,11.593l-11.147-11.593l-11.147,11.593l-11.147-11.593l-11.084,11.528v0.065l-0.031-0.034
		l-0.031,0.034v-0.065l-11.084-11.528l-9.197,9.565l-0.686,4.775c-0.218,1.521-0.268,3.004-0.169,4.436L62.163,260.03z"/>
	<polygon fill="#47321D" points="63.946,249.853 75.03,261.381 75.03,261.446 75.062,261.412 75.093,261.446 75.093,261.381 
		86.177,249.853 97.325,261.446 108.472,249.853 119.619,261.446 130.766,249.853 141.913,261.446 153.06,249.853 164.207,261.446 
		175.354,249.853 186.501,261.446 197.648,249.853 208.796,261.446 219.942,249.853 231.09,261.446 242.236,249.853 
		253.384,261.446 264.53,249.853 275.678,261.446 286.825,249.853 297.972,261.446 309.118,249.853 320.266,261.446 
		331.413,249.853 342.561,261.446 353.707,249.853 364.854,261.446 376.002,249.853 387.148,261.446 398.295,249.853 
		409.007,260.994 409.007,261.446 409.226,261.22 409.443,261.446 409.443,260.994 420.154,249.853 431.302,261.446 
		442.448,249.853 450.133,257.844 449.918,256.139 440.665,246.517 429.519,258.109 418.37,246.517 407.659,257.656 
		407.659,258.109 407.441,257.883 407.224,258.109 407.224,257.656 396.512,246.517 385.365,258.109 374.218,246.517 
		363.07,258.109 351.924,246.517 340.777,258.109 329.629,246.517 318.482,258.109 307.336,246.517 296.188,258.109 
		285.041,246.517 273.895,258.109 262.747,246.517 251.601,258.109 240.453,246.517 229.306,258.109 218.159,246.517 
		207.012,258.109 195.865,246.517 184.717,258.109 173.571,246.517 162.423,258.109 151.276,246.517 140.129,258.109 
		128.982,246.517 117.835,258.109 106.688,246.517 95.541,258.109 84.394,246.517 73.309,258.045 73.309,258.109 73.278,258.078 
		73.247,258.109 73.247,258.045 62.163,246.517 55.625,253.315 54.749,259.418 	"/>
	<polygon fill="#754C24" points="62.163,246.517 73.247,258.045 73.247,258.109 73.278,258.078 73.309,258.109 73.309,258.045 
		84.394,246.517 95.541,258.109 106.688,246.517 117.835,258.109 128.982,246.517 140.129,258.109 151.276,246.517 162.423,258.109 
		173.571,246.517 184.717,258.109 195.865,246.517 207.012,258.109 218.159,246.517 229.306,258.109 240.453,246.517 
		251.601,258.109 262.747,246.517 273.895,258.109 285.041,246.517 296.188,258.109 307.336,246.517 318.482,258.109 
		329.629,246.517 340.777,258.109 351.924,246.517 363.07,258.109 374.218,246.517 385.365,258.109 396.512,246.517 
		407.224,257.656 407.224,258.109 407.441,257.883 407.659,258.109 407.659,257.656 418.37,246.517 429.519,258.109 
		440.665,246.517 449.918,256.139 448.137,241.957 442.448,236.041 431.302,247.634 420.154,236.041 409.443,247.181 
		409.443,247.634 409.226,247.408 409.007,247.634 409.007,247.181 398.295,236.041 387.148,247.634 376.002,236.041 
		364.854,247.634 353.707,236.041 342.561,247.634 331.413,236.041 320.266,247.634 309.118,236.041 297.972,247.634 
		286.825,236.041 275.678,247.634 264.53,236.041 253.384,247.634 242.236,236.041 231.09,247.634 219.942,236.041 208.796,247.634 
		197.648,236.041 186.501,247.634 175.354,236.041 164.207,247.634 153.06,236.041 141.913,247.634 130.766,236.041 
		119.619,247.634 108.472,236.041 97.325,247.634 86.177,236.041 75.093,247.569 75.093,247.634 75.062,247.602 75.03,247.634 
		75.03,247.569 63.946,236.041 57.079,243.182 55.625,253.315 	"/>
	<polygon fill="#FBB03B" points="63.946,236.041 75.03,247.569 75.03,247.634 75.062,247.602 75.093,247.634 75.093,247.569 
		86.177,236.041 97.325,247.634 108.472,236.041 119.619,247.634 130.766,236.041 141.913,247.634 153.06,236.041 164.207,247.634 
		175.354,236.041 186.501,247.634 197.648,236.041 208.796,247.634 219.942,236.041 231.09,247.634 242.236,236.041 
		253.384,247.634 264.53,236.041 275.678,247.634 286.825,236.041 297.972,247.634 309.118,236.041 320.266,247.634 
		331.413,236.041 342.561,247.634 353.707,236.041 364.854,247.634 376.002,236.041 387.148,247.634 398.295,236.041 
		409.007,247.181 409.007,247.634 409.226,247.408 409.443,247.634 409.443,247.181 420.154,236.041 431.302,247.634 
		442.448,236.041 448.137,241.957 446.677,230.328 441.021,224.448 440.309,224.448 429.519,235.67 418.728,224.448 
		418.014,224.448 407.659,235.218 407.659,235.67 407.441,235.444 407.224,235.67 407.224,235.218 396.868,224.448 396.155,224.448 
		385.365,235.67 374.575,224.448 373.861,224.448 363.07,235.67 352.28,224.448 351.567,224.448 340.777,235.67 329.986,224.448 
		329.272,224.448 318.482,235.67 307.692,224.448 306.979,224.448 296.188,235.67 285.397,224.448 284.685,224.448 273.895,235.67 
		263.104,224.448 262.391,224.448 251.601,235.67 240.81,224.448 240.097,224.448 229.306,235.67 218.516,224.448 217.802,224.448 
		207.012,235.67 196.222,224.448 195.508,224.448 184.717,235.67 173.927,224.448 173.214,224.448 162.423,235.67 151.633,224.448 
		150.92,224.448 140.129,235.67 129.339,224.448 128.625,224.448 117.835,235.67 107.045,224.448 106.332,224.448 95.541,235.67 
		84.75,224.448 84.037,224.448 73.309,235.606 73.309,235.67 73.278,235.637 73.247,235.67 73.247,235.606 62.52,224.448 
		61.806,224.448 59.411,226.938 57.079,243.182 	"/>
	<polygon fill="#47321D" points="62.163,224.077 62.52,224.448 73.247,235.606 73.247,235.67 73.278,235.637 73.309,235.67 
		73.309,235.606 84.037,224.448 84.394,224.077 84.75,224.448 95.541,235.67 106.332,224.448 106.688,224.077 107.045,224.448 
		117.835,235.67 128.625,224.448 128.982,224.077 129.339,224.448 140.129,235.67 150.92,224.448 151.276,224.077 151.633,224.448 
		162.423,235.67 173.214,224.448 173.571,224.077 173.927,224.448 184.717,235.67 195.508,224.448 195.865,224.077 196.222,224.448 
		207.012,235.67 217.802,224.448 218.159,224.077 218.516,224.448 229.306,235.67 240.097,224.448 240.453,224.077 240.81,224.448 
		251.601,235.67 262.391,224.448 262.747,224.077 263.104,224.448 273.895,235.67 284.685,224.448 285.041,224.077 285.397,224.448 
		296.188,235.67 306.979,224.448 307.336,224.077 307.692,224.448 318.482,235.67 329.272,224.448 329.629,224.077 329.986,224.448 
		340.777,235.67 351.567,224.448 351.924,224.077 352.28,224.448 363.07,235.67 373.861,224.448 374.218,224.077 374.575,224.448 
		385.365,235.67 396.155,224.448 396.512,224.077 396.868,224.448 407.224,235.218 407.224,235.67 407.441,235.444 407.659,235.67 
		407.659,235.218 418.014,224.448 418.37,224.077 418.728,224.448 429.519,235.67 440.309,224.448 440.665,224.077 441.021,224.448 
		446.677,230.328 445.927,224.357 442.448,220.741 431.302,232.333 420.154,220.741 409.443,231.88 409.443,232.333 
		409.226,232.107 409.007,232.333 409.007,231.88 398.295,220.741 387.148,232.333 376.002,220.741 364.854,232.333 
		353.707,220.741 342.561,232.333 331.413,220.741 320.266,232.333 309.118,220.741 297.972,232.333 286.825,220.741 
		275.678,232.333 264.53,220.741 253.384,232.333 242.236,220.741 231.09,232.333 219.942,220.741 208.796,232.333 197.648,220.741 
		186.501,232.333 175.354,220.741 164.207,232.333 153.06,220.741 141.913,232.333 130.766,220.741 119.619,232.333 
		108.472,220.741 97.325,232.333 86.177,220.741 75.093,232.269 75.093,232.333 75.062,232.302 75.03,232.333 75.03,232.269 
		63.946,220.741 59.661,225.197 59.411,226.938 61.806,224.448 	"/>
	<polygon fill="#754C24" points="63.946,220.741 75.03,232.269 75.03,232.333 75.062,232.302 75.093,232.333 75.093,232.269 
		86.177,220.741 97.325,232.333 108.472,220.741 119.619,232.333 130.766,220.741 141.913,232.333 153.06,220.741 164.207,232.333 
		175.354,220.741 186.501,232.333 197.648,220.741 208.796,232.333 219.942,220.741 231.09,232.333 242.236,220.741 
		253.384,232.333 264.53,220.741 275.678,232.333 286.825,220.741 297.972,232.333 309.118,220.741 320.266,232.333 
		331.413,220.741 342.561,232.333 353.707,220.741 364.854,232.333 376.002,220.741 387.148,232.333 398.295,220.741 
		409.007,231.88 409.007,232.333 409.226,232.107 409.443,232.333 409.443,231.88 420.154,220.741 431.302,232.333 442.448,220.741 
		445.927,224.357 444.682,214.441 440.665,210.265 429.519,221.858 418.37,210.265 407.659,221.405 407.659,221.858 
		407.441,221.632 407.224,221.858 407.224,221.405 396.512,210.265 385.365,221.858 374.218,210.265 363.07,221.858 
		351.924,210.265 340.777,221.858 329.629,210.265 318.482,221.858 307.336,210.265 296.188,221.858 285.041,210.265 
		273.895,221.858 262.747,210.265 251.601,221.858 240.453,210.265 229.306,221.858 218.159,210.265 207.012,221.858 
		195.865,210.265 184.717,221.858 173.571,210.265 162.423,221.858 151.276,210.265 140.129,221.858 128.982,210.265 
		117.835,221.858 106.688,210.265 95.541,221.858 84.394,210.265 73.309,221.793 73.309,221.858 73.278,221.826 73.247,221.858 
		73.247,221.793 62.163,210.265 61.741,210.703 59.661,225.197 	"/>
	<polygon fill="#FBB03B" points="73.247,221.793 73.247,221.858 73.278,221.826 73.309,221.858 73.309,221.793 84.394,210.265 
		95.541,221.858 106.688,210.265 117.835,221.858 128.982,210.265 140.129,221.858 151.276,210.265 162.423,221.858 
		173.571,210.265 184.717,221.858 195.865,210.265 207.012,221.858 218.159,210.265 229.306,221.858 240.453,210.265 
		251.601,221.858 262.747,210.265 273.895,221.858 285.041,210.265 296.188,221.858 307.336,210.265 318.482,221.858 
		329.629,210.265 340.777,221.858 351.924,210.265 363.07,221.858 374.218,210.265 385.365,221.858 396.512,210.265 
		407.224,221.405 407.224,221.858 407.441,221.632 407.659,221.858 407.659,221.405 418.37,210.265 429.519,221.858 
		440.665,210.265 444.682,214.441 442.773,199.25 442.449,198.913 431.303,210.506 420.155,198.913 409.443,210.054 
		409.443,210.506 409.226,210.28 409.008,210.506 409.008,210.054 398.296,198.913 387.149,210.506 376.003,198.913 
		364.854,210.506 353.708,198.913 342.562,210.506 331.414,198.913 320.267,210.506 309.12,198.913 297.973,210.506 
		286.825,198.913 275.679,210.506 264.531,198.913 253.384,210.506 242.236,198.913 231.089,210.506 219.942,198.913 
		208.795,210.506 197.648,198.913 186.501,210.506 175.354,198.913 164.207,210.506 153.06,198.913 141.912,210.506 
		130.766,198.913 119.618,210.506 108.471,198.913 97.324,210.506 86.177,198.913 75.092,210.442 75.092,210.506 75.061,210.473 
		75.03,210.506 75.03,210.442 63.945,198.913 63.344,199.539 61.741,210.703 62.163,210.265 	"/>
	<polygon fill="#47321D" points="75.03,210.442 75.03,210.506 75.061,210.473 75.092,210.506 75.092,210.442 86.177,198.913 
		97.324,210.506 108.471,198.913 119.618,210.506 130.766,198.913 141.912,210.506 153.06,198.913 164.207,210.506 175.354,198.913 
		186.501,210.506 197.648,198.913 208.795,210.506 219.942,198.913 231.089,210.506 242.236,198.913 253.384,210.506 
		264.531,198.913 275.679,210.506 286.825,198.913 297.973,210.506 309.12,198.913 320.267,210.506 331.414,198.913 
		342.562,210.506 353.708,198.913 364.854,210.506 376.003,198.913 387.149,210.506 398.296,198.913 409.008,210.054 
		409.008,210.506 409.226,210.28 409.443,210.506 409.443,210.054 420.155,198.913 431.303,210.506 442.449,198.913 442.773,199.25 
		442.559,197.545 440.666,195.577 429.519,207.169 418.372,195.577 407.66,206.716 407.66,207.169 407.442,206.943 407.225,207.169 
		407.225,206.716 396.514,195.577 385.366,207.169 374.219,195.577 363.071,207.169 351.925,195.577 340.777,207.169 
		329.63,195.577 318.483,207.169 307.337,195.577 296.188,207.169 285.042,195.577 273.896,207.169 262.748,195.577 251.6,207.169 
		240.453,195.577 229.306,207.169 218.158,195.577 207.012,207.169 195.864,195.577 184.717,207.169 173.57,195.577 
		162.423,207.169 151.276,195.577 140.129,207.169 128.982,195.577 117.834,207.169 106.688,195.577 95.541,207.169 84.394,195.577 
		73.309,207.104 73.309,207.169 73.277,207.138 73.246,207.169 73.246,207.104 63.685,197.16 63.344,199.539 63.945,198.913 	"/>
	<polygon fill="#754C24" points="73.246,207.104 73.246,207.169 73.277,207.138 73.309,207.169 73.309,207.104 84.394,195.577 
		95.541,207.169 106.688,195.577 117.834,207.169 128.982,195.577 140.129,207.169 151.276,195.577 162.423,207.169 173.57,195.577 
		184.717,207.169 195.864,195.577 207.012,207.169 218.158,195.577 229.306,207.169 240.453,195.577 251.6,207.169 262.748,195.577 
		273.896,207.169 285.042,195.577 296.188,207.169 307.337,195.577 318.483,207.169 329.63,195.577 340.777,207.169 
		351.925,195.577 363.071,207.169 374.219,195.577 385.366,207.169 396.514,195.577 407.225,206.716 407.225,207.169 
		407.442,206.943 407.66,207.169 407.66,206.716 418.372,195.577 429.519,207.169 440.666,195.577 442.559,197.545 441.164,186.438 
		431.303,196.694 420.155,185.101 409.443,196.241 409.443,196.694 409.226,196.467 409.008,196.694 409.008,196.241 
		398.296,185.101 387.149,196.694 376.003,185.101 364.854,196.694 353.708,185.101 342.562,196.694 331.414,185.101 
		320.267,196.694 309.12,185.101 297.973,196.694 286.825,185.101 275.679,196.694 264.531,185.101 253.384,196.694 
		242.236,185.101 231.089,196.694 219.942,185.101 208.795,196.694 197.648,185.101 186.501,196.694 175.354,185.101 
		164.207,196.694 153.06,185.101 141.912,196.694 130.766,185.101 119.618,196.694 108.471,185.101 97.324,196.694 86.177,185.101 
		75.092,196.629 75.092,196.694 75.061,196.662 75.03,196.694 75.03,196.629 65.225,186.432 63.685,197.16 	"/>
	<polygon fill="#FBB03B" points="75.03,196.629 75.03,196.694 75.061,196.662 75.092,196.694 75.092,196.629 86.177,185.101 
		97.324,196.694 108.471,185.101 119.618,196.694 130.766,185.101 141.912,196.694 153.06,185.101 164.207,196.694 175.354,185.101 
		186.501,196.694 197.648,185.101 208.795,196.694 219.942,185.101 231.089,196.694 242.236,185.101 253.384,196.694 
		264.531,185.101 275.679,196.694 286.825,185.101 297.973,196.694 309.12,185.101 320.267,196.694 331.414,185.101 
		342.562,196.694 353.708,185.101 364.854,196.694 376.003,185.101 387.149,196.694 398.296,185.101 409.008,196.241 
		409.008,196.694 409.226,196.467 409.443,196.694 409.443,196.241 420.155,185.101 431.303,196.694 441.164,186.438 
		439.917,176.505 429.519,187.32 418.37,175.726 407.659,186.867 407.659,187.32 407.441,187.093 407.224,187.32 407.224,186.867 
		396.512,175.726 385.365,187.32 374.218,175.726 363.07,187.32 351.924,175.726 340.777,187.32 329.629,175.726 318.482,187.32 
		307.336,175.726 296.188,187.32 285.041,175.726 273.895,187.32 262.747,175.726 251.601,187.32 240.453,175.726 229.306,187.32 
		218.159,175.726 207.012,187.32 195.865,175.726 184.717,187.32 173.571,175.726 162.423,187.32 151.276,175.726 140.129,187.32 
		128.982,175.726 117.835,187.32 106.688,175.726 95.541,187.32 84.394,175.726 73.309,187.255 73.309,187.32 73.278,187.287 
		73.247,187.32 73.247,187.255 66.164,179.889 65.225,186.432 	"/>
	<polygon fill="#47321D" points="73.247,187.255 73.247,187.32 73.278,187.287 73.309,187.32 73.309,187.255 84.394,175.726 
		95.541,187.32 106.688,175.726 117.835,187.32 128.982,175.726 140.129,187.32 151.276,175.726 162.423,187.32 173.571,175.726 
		184.717,187.32 195.865,175.726 207.012,187.32 218.159,175.726 229.306,187.32 240.453,175.726 251.601,187.32 262.747,175.726 
		273.895,187.32 285.041,175.726 296.188,187.32 307.336,175.726 318.482,187.32 329.629,175.726 340.777,187.32 351.924,175.726 
		363.07,187.32 374.218,175.726 385.365,187.32 396.512,175.726 407.224,186.867 407.224,187.32 407.441,187.093 407.659,187.32 
		407.659,186.867 418.37,175.726 429.519,187.32 439.917,176.505 439.752,175.194 431.302,183.982 420.154,172.39 409.443,183.53 
		409.443,183.982 409.226,183.756 409.007,183.982 409.007,183.53 398.295,172.39 387.148,183.982 376.002,172.39 364.854,183.982 
		353.707,172.39 342.561,183.982 331.413,172.39 320.266,183.982 309.118,172.39 297.972,183.982 286.825,172.39 275.678,183.982 
		264.53,172.39 253.384,183.982 242.236,172.39 231.09,183.982 219.942,172.39 208.796,183.982 197.648,172.39 186.501,183.982 
		175.354,172.39 164.207,183.982 153.06,172.39 141.913,183.982 130.766,172.39 119.619,183.982 108.472,172.39 97.325,183.982 
		86.177,172.39 75.093,183.918 75.093,183.982 75.062,183.951 75.03,183.982 75.03,183.918 66.812,175.372 66.164,179.889 	"/>
	<polygon fill="#754C24" points="75.03,183.982 75.062,183.951 75.093,183.982 75.093,183.918 86.177,172.39 97.325,183.982 
		108.472,172.39 119.619,183.982 130.766,172.39 141.913,183.982 153.06,172.39 164.207,183.982 175.354,172.39 186.501,183.982 
		197.648,172.39 208.796,183.982 219.942,172.39 231.09,183.982 242.236,172.39 253.384,183.982 264.53,172.39 275.678,183.982 
		286.825,172.39 297.972,183.982 309.118,172.39 320.266,183.982 331.413,172.39 342.561,183.982 353.707,172.39 364.854,183.982 
		376.002,172.39 387.148,183.982 398.295,172.39 409.007,183.53 409.007,183.982 409.226,183.756 409.443,183.982 409.443,183.53 
		420.154,172.39 431.302,183.982 439.752,175.194 438.382,164.288 429.519,173.507 418.37,161.914 407.659,173.054 407.659,173.507 
		407.441,173.281 407.224,173.507 407.224,173.054 396.512,161.914 385.365,173.507 374.218,161.914 363.07,173.507 
		351.924,161.914 340.777,173.507 329.629,161.914 318.482,173.507 307.336,161.914 296.188,173.507 285.041,161.914 
		273.895,173.507 262.747,161.914 251.601,173.507 240.453,161.914 229.306,173.507 218.159,161.914 207.012,173.507 
		195.865,161.914 184.717,173.507 173.571,161.914 162.423,173.507 151.276,161.914 140.129,173.507 128.982,161.914 
		117.835,173.507 106.688,161.914 95.541,173.507 84.394,161.914 73.309,173.443 73.309,173.507 73.278,173.475 73.247,173.507 
		73.247,173.443 67.889,167.871 66.812,175.372 75.03,183.918 	"/>
	<polygon fill="#FBB03B" points="73.247,173.507 73.278,173.475 73.309,173.507 73.309,173.443 84.394,161.914 95.541,173.507 
		106.688,161.914 117.835,173.507 128.982,161.914 140.129,173.507 151.276,161.914 162.423,173.507 173.571,161.914 
		184.717,173.507 195.865,161.914 207.012,173.507 218.159,161.914 229.306,173.507 240.453,161.914 251.601,173.507 
		262.747,161.914 273.895,173.507 285.041,161.914 296.188,173.507 307.336,161.914 318.482,173.507 329.629,161.914 
		340.777,173.507 351.924,161.914 363.07,173.507 374.218,161.914 385.365,173.507 396.512,161.914 407.224,173.054 
		407.224,173.507 407.441,173.281 407.659,173.507 407.659,173.054 418.37,161.914 429.519,173.507 438.382,164.288 437.327,155.89 
		431.303,162.156 420.155,150.562 409.443,161.703 409.443,162.156 409.226,161.929 409.008,162.156 409.008,161.703 
		398.296,150.562 387.149,162.156 376.003,150.562 364.854,162.156 353.708,150.562 342.562,162.156 331.414,150.562 
		320.267,162.156 309.12,150.562 297.973,162.156 286.825,150.562 275.679,162.156 264.531,150.562 253.384,162.156 
		242.236,150.562 231.089,162.156 219.942,150.562 208.795,162.156 197.648,150.562 186.501,162.156 175.354,150.562 
		164.207,162.156 153.06,150.562 141.912,162.156 130.766,150.562 119.618,162.156 108.471,150.562 97.324,162.156 86.177,150.562 
		75.092,162.091 75.092,162.156 75.061,162.123 75.03,162.156 75.03,162.091 69.538,156.379 67.889,167.871 73.247,173.443 	"/>
	<polygon fill="#47321D" points="75.03,162.091 75.03,162.156 75.061,162.123 75.092,162.156 75.092,162.091 86.177,150.562 
		97.324,162.156 108.471,150.562 119.618,162.156 130.766,150.562 141.912,162.156 153.06,150.562 164.207,162.156 175.354,150.562 
		186.501,162.156 197.648,150.562 208.795,162.156 219.942,150.562 231.089,162.156 242.236,150.562 253.384,162.156 
		264.531,150.562 275.679,162.156 286.825,150.562 297.973,162.156 309.12,150.562 320.267,162.156 331.414,150.562 
		342.562,162.156 353.708,150.562 364.854,162.156 376.003,150.562 387.149,162.156 398.296,150.562 409.008,161.703 
		409.008,162.156 409.226,161.929 409.443,162.156 409.443,161.703 420.155,150.562 431.303,162.156 437.327,155.89 
		436.751,151.297 429.519,158.818 418.372,147.226 407.66,158.366 407.66,158.818 407.442,158.592 407.225,158.818 407.225,158.366 
		396.514,147.226 385.366,158.818 374.219,147.226 363.071,158.818 351.925,147.226 340.777,158.818 329.63,147.226 
		318.483,158.818 307.337,147.226 296.188,158.818 285.042,147.226 273.896,158.818 262.748,147.226 251.6,158.818 240.453,147.226 
		229.306,158.818 218.158,147.226 207.012,158.818 195.864,147.226 184.717,158.818 173.57,147.226 162.423,158.818 
		151.276,147.226 140.129,158.818 128.982,147.226 117.834,158.818 106.688,147.226 95.541,158.818 84.394,147.226 73.309,158.754 
		73.309,158.818 73.277,158.787 73.246,158.818 73.246,158.754 69.723,155.09 69.538,156.379 	"/>
	<path fill="#754C24" d="M73.246,158.818l0.031-0.031l0.032,0.031v-0.064l11.084-11.528l11.147,11.592l11.147-11.592l11.147,11.592
		l11.147-11.592l11.147,11.592l11.147-11.592l11.147,11.592l11.147-11.592l11.147,11.592l11.147-11.592l11.147,11.592l11.146-11.592
		l11.147,11.592l11.147-11.592l11.146,11.592l11.148-11.592l11.147,11.592l11.146-11.592l11.146,11.592l11.148-11.592l11.146,11.592
		l11.146-11.592l11.147,11.592l11.147-11.592l11.146,11.592l11.147-11.592l11.147,11.592l11.147-11.592l10.711,11.14v0.453
		l0.218-0.227l0.218,0.227v-0.453l10.712-11.14l11.146,11.592l7.232-7.521l-0.615-4.898c-0.111-0.878-0.272-1.742-0.472-2.592
		l-4.361,4.536l-11.147-11.593l-10.712,11.14v0.453l-0.218-0.227l-0.218,0.227v-0.453l-10.712-11.14l-11.146,11.593l-11.146-11.593
		l-11.148,11.593l-11.146-11.593l-11.146,11.593l-11.147-11.593l-11.147,11.593L309.12,136.75l-11.147,11.593l-11.147-11.593
		l-11.146,11.593l-11.147-11.593l-11.147,11.593l-11.147-11.593l-11.147,11.593l-11.146-11.593l-11.147,11.593l-11.147-11.593
		l-11.147,11.593l-11.147-11.593l-11.147,11.593L153.06,136.75l-11.147,11.593l-11.146-11.593l-11.147,11.593l-11.147-11.593
		l-11.147,11.593L86.177,136.75l-11.084,11.528v0.064l-0.031-0.032l-0.031,0.032v-0.064l-3.694-3.842
		c-0.146,0.646-0.271,1.3-0.365,1.962l-1.248,8.691l3.523,3.664V158.818z"/>
	<path fill="#FBB03B" d="M75.03,148.343l0.031-0.032l0.031,0.032v-0.064l11.084-11.528l11.147,11.593l11.147-11.593l11.147,11.593
		l11.147-11.593l11.146,11.593l11.147-11.593l11.147,11.593l11.147-11.593l11.147,11.593l11.147-11.593l11.147,11.593l11.147-11.593
		l11.146,11.593l11.147-11.593l11.147,11.593l11.147-11.593l11.147,11.593l11.146-11.593l11.147,11.593l11.147-11.593l11.146,11.593
		l11.147-11.593l11.147,11.593l11.146-11.593l11.146,11.593l11.148-11.593l11.146,11.593l11.146-11.593l10.712,11.14v0.453
		l0.218-0.227l0.218,0.227v-0.453l10.712-11.14l11.147,11.593l4.361-4.536c-2.462-10.508-11.472-18.65-21.162-18.65h-5.059h-0.436
		h-21.858h-22.295h-22.293h-22.295h-22.294h-22.294h-22.295h-22.295h-22.294h-22.294h-22.294h-22.294h-22.294H97.324h-4.339
		c-9.883,0-19.213,8.469-21.649,19.28l3.694,3.842V148.343z"/>
</g>
<circle fill="#F2F2F2" cx="161.133" cy="64.5" r="9.5"/>
<circle fill="#F2F2F2" cx="173.57" cy="51" r="17"/>
<circle fill="#F2F2F2" cx="197.332" cy="43.448" r="21.052"/>
<circle fill="#F2F2F2" cx="231.104" cy="39" r="32"/>
<circle fill="#F2F2F2" cx="157.738" cy="77.818" r="6.818"/>
</svg>
